# xmcd
#
# Track frame offsets: 
#        150
#        12450
#        28125
#        41625
#        52012
#        66225
#        79762
#        89905
#        103712
#        115712
#        131837
#        144487
#        166877
#        180452
#
# Disc length: 2764 seconds
#
# Revision: 7
# Processed by: cddbd v1.5.2PL0 Copyright (c) Steve Scherf et al.
# Submitted via: ExactAudioCopyFreeDBPlugin 1.0
#
DISCID=c60aca0e
DTITLE=The Byrds - 1971 - Farther Along
DYEAR=1971
DGENRE=
TTITLE0=Tiffany Queen
TTITLE1=Get Down Your Line
TTITLE2=Farther Along
TTITLE3=B.B. Class Road
TTITLE4=Bugler
TTITLE5=America's Great National Pastime
TTITLE6=Antique Sandy
TTITLE7=Precious Kate
TTITLE8=So Fine
TTITLE9=Lazy Waters
TTITLE10=Bristol Steam Convention Blues
TTITLE11=Lost My Drivin' Wheel
TTITLE12=Born To Rock And Roll
TTITLE13=Bag Full Of Money
EXTD=
EXTT0=
EXTT1=
EXTT2=
EXTT3=
EXTT4=
EXTT5=
EXTT6=
EXTT7=
EXTT8=
EXTT9=
EXTT10=
EXTT11=
EXTT12=
EXTT13=
PLAYORDER=
